<svg width="77" height="78" viewBox="0 0 77 78" fill="none" xmlns="http://www.w3.org/2000/svg">
<rect x="0.633975" y="60.3696" width="68.9767" height="19.5814" transform="rotate(-60 0.633975 60.3696)" fill="#181D24" stroke="#F1E18C" stroke-width="2" stroke-linejoin="round"/>
<line x1="14.7488" y1="44.9424" x2="23.8925" y2="50.2214" stroke="#F1E18C" stroke-width="2" stroke-linecap="round"/>
<line x1="21.0281" y1="34.0667" x2="30.1718" y2="39.3458" stroke="#F1E18C" stroke-width="2" stroke-linecap="round"/>
<line x1="27.3074" y1="23.191" x2="36.451" y2="28.4701" stroke="#F1E18C" stroke-width="2" stroke-linecap="round"/>
<line x1="33.5887" y1="12.3154" x2="42.7323" y2="17.5944" stroke="#F1E18C" stroke-width="2" stroke-linecap="round"/>
<rect x="5.30585" y="56.0526" width="68.9767" height="19.5814" transform="rotate(-30 5.30585 56.0526)" fill="#181D24" stroke="#F1E18C" stroke-width="2" stroke-linejoin="round"/>
<line x1="25.2449" y1="49.7504" x2="30.524" y2="58.8941" stroke="#F1E18C" stroke-width="2" stroke-linecap="round"/>
<line x1="36.1199" y1="43.4714" x2="41.399" y2="52.615" stroke="#F1E18C" stroke-width="2" stroke-linecap="round"/>
<line x1="46.9969" y1="37.1923" x2="52.276" y2="46.3359" stroke="#F1E18C" stroke-width="2" stroke-linecap="round"/>
<line x1="57.8719" y1="30.9132" x2="63.151" y2="40.0569" stroke="#F1E18C" stroke-width="2" stroke-linecap="round"/>
<rect x="7.02148" y="57.4186" width="68.9767" height="19.5814" fill="#181D24" stroke="#F1E18C" stroke-width="2" stroke-linejoin="round"/>
<line x1="27.4395" y1="61.9302" x2="27.4395" y2="72.4884" stroke="#F1E18C" stroke-width="2" stroke-linecap="round"/>
<line x1="39.998" y1="61.9302" x2="39.998" y2="72.4884" stroke="#F1E18C" stroke-width="2" stroke-linecap="round"/>
<line x1="52.5566" y1="61.9302" x2="52.5566" y2="72.4884" stroke="#F1E18C" stroke-width="2" stroke-linecap="round"/>
<line x1="65.1152" y1="61.9302" x2="65.1152" y2="72.4884" stroke="#F1E18C" stroke-width="2" stroke-linecap="round"/>
<circle cx="15.5559" cy="67.6279" r="2.34884" stroke="#F1E18C" stroke-width="2"/>
</svg>
