<svg width="69" height="85" viewBox="0 0 69 85" fill="none" xmlns="http://www.w3.org/2000/svg">
<path d="M23.5742 20.1071V9.66072C23.5742 7.73857 25.1273 6.17857 27.0409 6.17857H42.2942C44.2078 6.17857 45.7609 7.73857 45.7609 9.66072V20.1071" fill="#181D24"/>
<path d="M23.5742 20.1071V9.66072C23.5742 7.73857 25.1273 6.17857 27.0409 6.17857H42.2942C44.2078 6.17857 45.7609 7.73857 45.7609 9.66072V20.1071" stroke="#F1E18C" stroke-width="2" stroke-linecap="round" stroke-linejoin="round"/>
<path d="M23.5734 11.0536C12.2027 15.5107 4.16005 26.6118 4.16005 39.6071L1.38672 42.3929V47.9643C1.38672 47.9643 11.4401 50.75 34.6667 50.75C57.8934 50.75 67.9467 47.9643 67.9467 47.9643V42.3929L65.1734 39.6071C65.1734 26.6118 57.1307 15.5107 45.7601 11.0536" fill="#181D24"/>
<path d="M23.5734 11.0536C12.2027 15.5107 4.16005 26.6118 4.16005 39.6071L1.38672 42.3929V47.9643C1.38672 47.9643 11.4401 50.75 34.6667 50.75C57.8934 50.75 67.9467 47.9643 67.9467 47.9643V42.3929L65.1734 39.6071C65.1734 26.6118 57.1307 15.5107 45.7601 11.0536" stroke="#F1E18C" stroke-width="2" stroke-linecap="round" stroke-linejoin="round"/>
<path d="M12.4805 39.6071H56.8538" stroke="#F1E18C" stroke-width="2" stroke-linecap="round" stroke-linejoin="round"/>
<path d="M34.666 3.39285V22.8929" stroke="#F1E18C" stroke-width="2" stroke-linecap="round" stroke-linejoin="round"/>
<path d="M34.6669 69.6786C36.1923 69.6786 37.4403 70.9321 37.4403 72.4643C37.4403 72.4643 38.9379 83.6071 47.1469 83.6071H54.0803C58.6701 83.6071 62.4003 79.8604 62.4003 75.25V66.8929C62.4003 63.8146 59.9181 61.3214 56.8536 61.3214H12.4803C9.41573 61.3214 6.93359 63.8146 6.93359 66.8929V75.25C6.93359 79.8604 10.6637 83.6071 15.2536 83.6071H22.1869C30.396 83.6071 31.8936 72.4643 31.8936 72.4643C31.8936 70.9321 33.1416 69.6786 34.6669 69.6786Z" fill="#181D24" stroke="#F1E18C" stroke-width="2" stroke-linecap="round" stroke-linejoin="round"/>
<path d="M6.93339 75.25H1.38672V66.8929H6.93339" stroke="#F1E18C" stroke-width="2" stroke-linecap="round" stroke-linejoin="round"/>
<path d="M62.4004 75.25H67.9471V66.8929H62.4004" stroke="#F1E18C" stroke-width="2" stroke-linecap="round" stroke-linejoin="round"/>
</svg>
