<svg width="86" height="82" viewBox="0 0 86 82" fill="none" xmlns="http://www.w3.org/2000/svg">
<mask id="path-1-inside-1_208_946" fill="white">
<rect width="27" height="21" rx="1"/>
</mask>
<rect width="27" height="21" rx="1" fill="#181D24" stroke="#F1E18C" stroke-width="4" mask="url(#path-1-inside-1_208_946)"/>
<mask id="path-2-inside-2_208_946" fill="white">
<rect x="32.332" y="26" width="48" height="30.6667" rx="1"/>
</mask>
<rect x="32.332" y="26" width="48" height="30.6667" rx="1" fill="#181D24" stroke="#F1E18C" stroke-width="4" mask="url(#path-2-inside-2_208_946)"/>
<rect x="41.666" y="70" width="12" height="10.6667" rx="1" transform="rotate(90 41.666 70)" fill="#181D24" stroke="#F1E18C" stroke-width="2"/>
<rect x="81.666" y="70" width="12" height="10.6667" rx="1" transform="rotate(90 81.666 70)" fill="#181D24" stroke="#F1E18C" stroke-width="2" />
<mask id="path-5-inside-5_208_946" fill="white">
<path fill-rule="evenodd" clip-rule="evenodd" d="M39.3333 43.3333C39.8856 43.3333 40.3333 43.7811 40.3333 44.3333L40.3333 60.4445L72.332 60.4445V44.3333C72.332 43.7811 72.7797 43.3333 73.332 43.3333H84.6654C85.2176 43.3333 85.6654 43.7811 85.6654 44.3333V71.6667C85.6654 72.219 85.2176 72.6667 84.6654 72.6667H76.6698C76.6683 72.6667 76.6668 72.6667 76.6654 72.6667L35.9987 72.6667C35.9976 72.6667 35.9964 72.6667 35.9953 72.6667H28C27.4477 72.6667 27 72.219 27 71.6667L27 44.3333C27 43.7811 27.4477 43.3333 28 43.3333H39.3333Z"/>
</mask>
<path fill-rule="evenodd" clip-rule="evenodd" d="M39.3333 43.3333C39.8856 43.3333 40.3333 43.7811 40.3333 44.3333L40.3333 60.4445L72.332 60.4445V44.3333C72.332 43.7811 72.7797 43.3333 73.332 43.3333H84.6654C85.2176 43.3333 85.6654 43.7811 85.6654 44.3333V71.6667C85.6654 72.219 85.2176 72.6667 84.6654 72.6667H76.6698C76.6683 72.6667 76.6668 72.6667 76.6654 72.6667L35.9987 72.6667C35.9976 72.6667 35.9964 72.6667 35.9953 72.6667H28C27.4477 72.6667 27 72.219 27 71.6667L27 44.3333C27 43.7811 27.4477 43.3333 28 43.3333H39.3333Z" fill="#181D24"/>
<path d="M40.3333 44.3333L42.3333 44.3333V44.3333H40.3333ZM40.3333 60.4445H38.3333V62.4445H40.3333V60.4445ZM72.332 60.4445V62.4445H74.332V60.4445H72.332ZM76.6698 72.6667V70.6667L76.662 70.6667L76.6698 72.6667ZM76.6654 72.6667V74.6667V72.6667ZM35.9987 72.6667V70.6667V72.6667ZM35.9953 72.6667L36.002 70.6667H35.9953V72.6667ZM27 71.6667H29H27ZM27 44.3333L25 44.3333L27 44.3333ZM42.3333 44.3333C42.3333 42.6765 40.9902 41.3333 39.3333 41.3333V45.3333C38.781 45.3333 38.3333 44.8856 38.3333 44.3333H42.3333ZM42.3333 60.4445L42.3333 44.3333L38.3333 44.3333L38.3333 60.4445H42.3333ZM40.3333 62.4445L72.332 62.4445V58.4445L40.3333 58.4445V62.4445ZM70.332 44.3333V60.4445H74.332V44.3333H70.332ZM73.332 41.3333C71.6752 41.3333 70.332 42.6765 70.332 44.3333H74.332C74.332 44.8856 73.8843 45.3333 73.332 45.3333V41.3333ZM84.6654 41.3333H73.332V45.3333H84.6654V41.3333ZM87.6654 44.3333C87.6654 42.6765 86.3222 41.3333 84.6654 41.3333V45.3333C84.1131 45.3333 83.6654 44.8856 83.6654 44.3333H87.6654ZM87.6654 71.6667V44.3333H83.6654V71.6667H87.6654ZM84.6654 74.6667C86.3222 74.6667 87.6654 73.3235 87.6654 71.6667H83.6654C83.6654 71.1144 84.1131 70.6667 84.6654 70.6667V74.6667ZM76.6698 74.6667H84.6654V70.6667H76.6698V74.6667ZM76.662 70.6667C76.6622 70.6667 76.6634 70.6667 76.6654 70.6667V74.6667C76.6702 74.6667 76.6744 74.6667 76.6776 74.6667L76.662 70.6667ZM76.6654 70.6667L35.9987 70.6667V74.6667L76.6654 74.6667V70.6667ZM35.9987 70.6667C35.9998 70.6667 36.0009 70.6667 36.002 70.6667L35.9886 74.6667C35.992 74.6667 35.9953 74.6667 35.9987 74.6667V70.6667ZM28 74.6667H35.9953V70.6667H28V74.6667ZM25 71.6667C25 73.3235 26.3431 74.6667 28 74.6667V70.6667C28.5523 70.6667 29 71.1144 29 71.6667H25ZM25 44.3333L25 71.6667H29L29 44.3333L25 44.3333ZM28 41.3333C26.3431 41.3333 25 42.6765 25 44.3333L29 44.3333C29 44.8856 28.5523 45.3333 28 45.3333V41.3333ZM39.3333 41.3333H28V45.3333H39.3333V41.3333Z" fill="#F1E18C" mask="url(#path-5-inside-5_208_946)"/>
<path d="M14 21L14 71.5" stroke="#F1E18C" stroke-width="2"/>
<path d="M8 21L8 28" stroke="#F1E18C" stroke-width="2" stroke-linecap="round" stroke-linejoin="round"/>
<line x1="1" y1="81" x2="26" y2="81" stroke="#F1E18C" stroke-width="2" stroke-linecap="round"/>
<path d="M26 81C19.9249 81 14 75.0751 14 69" stroke="#F1E18C" stroke-width="2" stroke-linecap="round"/>
<path d="M2 81C8.07513 81 14 75.0751 14 69" stroke="#F1E18C" stroke-width="2" stroke-linecap="round"/>
</svg>
