<svg width="79" height="78" viewBox="0 0 79 78" fill="none" xmlns="http://www.w3.org/2000/svg">
<rect x="1" y="11" width="66" height="66" rx="1" fill="#181D24" stroke="#F1E18C" stroke-width="2"/>
<mask id="path-2-inside-1_208_924" fill="white">
<path fill-rule="evenodd" clip-rule="evenodd" d="M60.3824 35.3488C70.1438 35.3488 78.0569 27.4357 78.0569 17.6744C78.0569 7.91311 70.1438 0 60.3824 0C50.6211 0 42.708 7.91311 42.708 17.6744C42.708 21.0713 43.6663 24.2444 45.3273 26.9381L40.7441 36.8751L51.5484 32.9861C54.1473 34.4888 57.1644 35.3488 60.3824 35.3488Z"/>
</mask>
<path fill-rule="evenodd" clip-rule="evenodd" d="M60.3824 35.3488C70.1438 35.3488 78.0569 27.4357 78.0569 17.6744C78.0569 7.91311 70.1438 0 60.3824 0C50.6211 0 42.708 7.91311 42.708 17.6744C42.708 21.0713 43.6663 24.2444 45.3273 26.9381L40.7441 36.8751L51.5484 32.9861C54.1473 34.4888 57.1644 35.3488 60.3824 35.3488Z" fill="#181D24"/>
<path d="M45.3273 26.9381L47.1434 27.7757L47.5928 26.8015L47.0297 25.8883L45.3273 26.9381ZM40.7441 36.8751L38.928 36.0375L36.9277 40.3745L41.4215 38.7569L40.7441 36.8751ZM51.5484 32.9861L52.5495 31.2547L51.7452 30.7897L50.871 31.1043L51.5484 32.9861ZM76.0569 17.6744C76.0569 26.3312 69.0392 33.3488 60.3824 33.3488V37.3488C71.2483 37.3488 80.0569 28.5403 80.0569 17.6744H76.0569ZM60.3824 2C69.0392 2 76.0569 9.01768 76.0569 17.6744H80.0569C80.0569 6.80854 71.2483 -2 60.3824 -2V2ZM44.708 17.6744C44.708 9.01768 51.7257 2 60.3824 2V-2C49.5166 -2 40.708 6.80854 40.708 17.6744H44.708ZM47.0297 25.8883C45.5577 23.5012 44.708 20.6901 44.708 17.6744H40.708C40.708 21.4526 41.775 24.9876 43.6249 27.9878L47.0297 25.8883ZM43.5112 26.1004L38.928 36.0375L42.5603 37.7127L47.1434 27.7757L43.5112 26.1004ZM41.4215 38.7569L52.2257 34.8679L50.871 31.1043L40.0668 34.9933L41.4215 38.7569ZM60.3824 33.3488C57.5253 33.3488 54.8523 32.5862 52.5495 31.2547L50.5473 34.7175C53.4424 36.3915 56.8036 37.3488 60.3824 37.3488V33.3488Z" fill="#F1E18C" mask="url(#path-2-inside-1_208_924)"/>
<path d="M62.424 23L62.432 17.328C62.432 16.6613 62.2453 16.1387 61.872 15.76C61.504 15.376 61.0347 15.184 60.464 15.184C60.1387 15.184 59.8213 15.2587 59.512 15.408C59.2027 15.5573 58.9467 15.7973 58.744 16.128C58.5467 16.4587 58.448 16.8907 58.448 17.424L57.752 17.224C57.736 16.6053 57.856 16.064 58.112 15.6C58.3733 15.136 58.7307 14.776 59.184 14.52C59.6427 14.2587 60.16 14.128 60.736 14.128C61.6053 14.128 62.3013 14.3973 62.824 14.936C63.3467 15.4693 63.608 16.192 63.608 17.104L63.6 23H62.424ZM52.112 23V14.36H53.168V16.488H53.296V23H52.112ZM57.28 23L57.288 17.408C57.288 16.72 57.104 16.1787 56.736 15.784C56.3733 15.384 55.8933 15.184 55.296 15.184C54.6987 15.184 54.216 15.3893 53.848 15.8C53.48 16.2053 53.296 16.7467 53.296 17.424L52.592 17.04C52.592 16.4853 52.7227 15.9893 52.984 15.552C53.2453 15.1093 53.6027 14.7627 54.056 14.512C54.5093 14.256 55.024 14.128 55.6 14.128C56.1493 14.128 56.6373 14.2453 57.064 14.48C57.496 14.7147 57.8347 15.056 58.08 15.504C58.3253 15.952 58.448 16.496 58.448 17.136L58.44 23H57.28ZM65.3625 18.68L65.3705 17.88L68.5705 14.992C68.8372 14.752 69.0158 14.5253 69.1065 14.312C69.1972 14.0933 69.2425 13.8747 69.2425 13.656C69.2425 13.2347 69.1038 12.88 68.8265 12.592C68.5545 12.304 68.2105 12.16 67.7945 12.16C67.5065 12.16 67.2505 12.2293 67.0265 12.368C66.8025 12.5067 66.6238 12.688 66.4905 12.912C66.3625 13.136 66.3038 13.3787 66.3145 13.64H65.3945C65.3945 13.1867 65.4985 12.7867 65.7065 12.44C65.9145 12.088 66.1998 11.8133 66.5625 11.616C66.9252 11.4187 67.3385 11.32 67.8025 11.32C68.2505 11.32 68.6505 11.424 69.0025 11.632C69.3598 11.8347 69.6425 12.1147 69.8505 12.472C70.0585 12.824 70.1625 13.2213 70.1625 13.664C70.1625 13.9787 70.1198 14.2507 70.0345 14.48C69.9545 14.704 69.8318 14.9147 69.6665 15.112C69.5065 15.304 69.3038 15.5093 69.0585 15.728L66.2745 18.248L66.1065 17.824H70.1625V18.68H65.3625Z" fill="#F1E18C"/>
<line x1="29" y1="58" x2="29" y2="77" stroke="#F1E18C" stroke-width="2" stroke-linecap="round"/>
<line x1="29" y1="26" x2="29" y2="45" stroke="#F1E18C" stroke-width="2" stroke-linecap="round"/>
<line x1="28" y1="40" x2="2" y2="40" stroke="#F1E18C" stroke-width="2" stroke-linecap="round"/>
</svg>
