<svg width="194" height="194" viewBox="0 0 194 194" fill="none" xmlns="http://www.w3.org/2000/svg">
<circle cx="97" cy="97" r="96.5" stroke="white"/>
<circle cx="97.0004" cy="96.9999" r="29.1" fill="#F1E18C"/>
<g clip-path="url(#clip0_56_669)">
<path d="M24.7721 105.489L11.5385 106.233L11.4465 104.612L17.6605 104.264L11.1151 98.8642L11 96.822L17.7664 102.428L24.2105 95.6113L24.3302 97.7084L18.2128 104.228L24.6846 103.867L24.7767 105.489H24.7721Z" fill="white"/>
<path d="M24.2698 93.939L11.6484 87.9723L11.9246 85.7245L25.623 82.9468L25.4159 84.6235L12.7025 87.2322L12.767 86.7251L24.4769 92.2577L24.2698 93.9344V93.939ZM21.4481 91.4628L19.9246 91.28L20.7577 84.4956L22.2859 84.6829L21.4527 91.4673L21.4481 91.4628Z" fill="white"/>
<path d="M26.3465 80.0823L13.6699 76.2264L14.1486 74.673L20.1003 76.4822L15.8471 69.1678L16.4501 67.2124L20.8413 74.7964L29.2648 70.6206L28.6434 72.6308L20.625 76.6421L26.8206 78.5244L26.3419 80.0778L26.3465 80.0823Z" fill="white"/>
<path d="M36.2845 57.5815L34.517 54.4154L23.6816 52.4783L24.7403 50.9935L33.5826 52.7159L29.0533 44.9446L30.0659 43.5283L37.311 56.1424L36.2845 57.5815Z" fill="white"/>
<path d="M42.7967 49.0568L33.4941 39.6819L37.1719 36.0863C37.7381 35.5335 38.3319 35.1771 38.9625 35.0172C39.5931 34.8573 40.1961 34.8573 40.7806 35.0264C41.3652 35.1954 41.8715 35.497 42.3042 35.931C42.8059 36.4381 43.1189 37.0138 43.234 37.6488C43.3491 38.2838 43.257 38.896 42.9532 39.4763L42.6218 39.1702C43.3905 38.7361 44.1546 38.5717 44.9187 38.6722C45.6828 38.7727 46.3594 39.1199 46.9486 39.7138C47.4917 40.2621 47.8508 40.8423 48.0211 41.4636C48.1914 42.085 48.1776 42.7109 47.9751 43.3414C47.7725 43.9764 47.3813 44.5749 46.8059 45.1368L42.7967 49.0568ZM38.5574 42.4413L41.043 40.0108C41.3238 39.7367 41.5171 39.4306 41.623 39.0925C41.7288 38.7544 41.7426 38.4118 41.6598 38.0645C41.5769 37.7173 41.3928 37.3975 41.1028 37.1051C40.7024 36.7031 40.2375 36.5066 39.7081 36.5203C39.1788 36.534 38.6909 36.7579 38.2444 37.1919L35.7588 39.6225L38.5574 42.4413ZM42.8796 46.7953L45.4849 44.2505C45.8347 43.9079 46.0832 43.5378 46.2305 43.1403C46.3778 42.7429 46.4147 42.35 46.3456 41.957C46.272 41.5687 46.074 41.2078 45.7472 40.8788C45.4342 40.5636 45.0798 40.3489 44.6885 40.2347C44.2973 40.1204 43.8968 40.1159 43.4964 40.2164C43.0913 40.3169 42.7231 40.5316 42.3825 40.8606L39.6483 43.5332L42.8842 46.7953H42.8796Z" fill="white"/>
<path d="M52.1006 40.4673L44.5195 29.6715L51.3918 24.9155L52.2801 26.181L46.752 30.005L49.1271 33.3858L53.7485 30.1878L54.6368 31.4533L50.0155 34.6514L52.5517 38.2652L58.0799 34.4412L58.9682 35.7067L52.096 40.4627L52.1006 40.4673Z" fill="white"/>
<path d="M61.1405 34.2996L60.5467 33.0112C60.8551 32.9061 61.0945 32.7782 61.2648 32.6366C61.4351 32.495 61.541 32.2985 61.5824 32.0609C61.6238 31.8234 61.61 31.5036 61.5456 31.1107C61.4765 30.7132 61.3568 30.2152 61.1865 29.6121C60.9978 28.8948 60.7861 28.1776 60.5513 27.4649C60.3166 26.7521 60.0726 26.0394 59.8149 25.3267C59.5571 24.614 59.2947 23.9104 59.0185 23.216C58.7424 22.5216 58.4708 21.8363 58.1992 21.1738L65.9598 17.6514L71.4742 29.6167L69.9828 30.2929L65.1175 19.7301L60.2613 21.9322C60.4593 22.453 60.6756 23.0058 60.9012 23.5952C61.1313 24.1846 61.3569 24.8013 61.587 25.4501C61.8171 26.0988 62.0473 26.7659 62.2728 27.4603C62.4984 28.1547 62.7101 28.872 62.908 29.603C63.0645 30.1969 63.1842 30.7452 63.2625 31.2614C63.3407 31.7777 63.3361 32.2391 63.2441 32.6457C63.152 33.0569 62.9449 33.3996 62.6181 33.6828C62.2913 33.9661 61.8033 34.1717 61.1451 34.2996H61.1405Z" fill="white"/>
<path d="M83.436 26.4189L81.0425 16.4089L76.7111 28.0042L75.1 28.3834L72.0391 15.582L73.6501 15.2028L76.0436 25.2036L80.3796 13.6175L81.9907 13.2383L85.0516 26.0397L83.4406 26.4189H83.436Z" fill="white"/>
<path d="M96.7169 25.2168L96.4592 19.1542L96.8504 19.7116C96.4638 20.0268 95.9667 20.2872 95.3591 20.4928C94.7515 20.6984 94.0702 20.8172 93.3246 20.8492C92.1922 20.8949 91.2716 20.7213 90.5766 20.3238C89.8769 19.9263 89.3614 19.3598 89.0254 18.6288C88.6894 17.8978 88.5007 17.0435 88.4592 16.0795L88.3027 12.4017L89.9598 12.3332L90.0933 15.4719C90.1163 16.0247 90.1853 16.5409 90.3004 17.0115C90.4155 17.4867 90.5996 17.8978 90.8574 18.245C91.1105 18.5923 91.4558 18.8573 91.8884 19.04C92.3211 19.2227 92.8597 19.2958 93.5087 19.2684C94.2958 19.2364 94.9632 19.0857 95.511 18.8161C96.0633 18.5466 96.4546 18.2679 96.6939 17.9801L96.4546 19.0765L96.1554 12.0636L97.8032 11.9951L98.3648 25.1392L96.7169 25.2077V25.2168Z" fill="white"/>
<path d="M110.699 26.5606L112.214 16.3816L103.859 25.5555L102.221 25.3133L104.159 12.3018L105.797 12.5439L104.283 22.7137L112.637 13.5444L114.276 13.7866L112.338 26.8027L110.699 26.5606Z" fill="white"/>
<path d="M119.317 28.8673L123.078 17.8705L118.797 16.4268L119.299 14.9648L129.411 18.3731L128.91 19.835L124.629 18.3913L120.868 29.3881L119.317 28.8673Z" fill="white"/>
<path d="M127.658 32.0108L134.037 20.4795L135.473 21.2607L133.117 25.5233L136.27 27.2411C136.385 27.3005 136.514 27.3782 136.666 27.4741C136.818 27.5655 136.96 27.666 137.089 27.7711C137.66 28.2051 138.07 28.7077 138.313 29.2696C138.557 29.8315 138.65 30.4255 138.59 31.0514C138.53 31.6773 138.327 32.2941 137.987 32.9063C137.651 33.5139 137.232 34.0119 136.739 34.4002C136.247 34.7885 135.69 35.0307 135.078 35.1312C134.465 35.2317 133.816 35.1586 133.135 34.9119C132.979 34.8525 132.818 34.7886 132.656 34.7155C132.495 34.6424 132.357 34.5738 132.242 34.5099L127.648 32.0062L127.658 32.0108ZM129.844 31.4397L132.951 33.1347C133.052 33.1895 133.172 33.2489 133.31 33.3083C133.448 33.3677 133.582 33.418 133.715 33.4591C134.134 33.5779 134.521 33.587 134.884 33.4865C135.243 33.386 135.561 33.2124 135.842 32.9657C136.118 32.7189 136.348 32.4357 136.523 32.1113C136.698 31.7915 136.818 31.4489 136.882 31.0834C136.942 30.7179 136.923 30.3569 136.813 30.0006C136.707 29.6442 136.491 29.3244 136.164 29.0412C136.063 28.9452 135.948 28.8539 135.823 28.7762C135.694 28.6985 135.579 28.63 135.478 28.5752L132.371 26.8802L129.844 31.4443V31.4397Z" fill="white"/>
<path d="M150.335 49.28C149.452 48.3069 148.922 47.2881 148.738 46.219C148.554 45.1499 148.688 44.0992 149.139 43.0529C149.59 42.0067 150.317 41.0336 151.33 40.129C152.342 39.2244 153.396 38.6076 154.492 38.2741C155.587 37.9406 156.655 37.9223 157.705 38.2147C158.754 38.5071 159.721 39.1422 160.6 40.1153C161.627 41.2483 162.179 42.4362 162.266 43.688C162.349 44.9352 162.027 46.1368 161.295 47.2881L159.854 46.3515C160.407 45.4972 160.665 44.6245 160.628 43.7337C160.591 42.8428 160.195 41.9839 159.44 41.1524C158.777 40.4214 158.064 39.9645 157.291 39.7772C156.517 39.5899 155.726 39.6401 154.906 39.928C154.087 40.2158 153.286 40.7092 152.49 41.4082C151.703 42.1026 151.118 42.8428 150.745 43.6149C150.372 44.3915 150.239 45.1728 150.345 45.9632C150.451 46.7535 150.837 47.5119 151.495 48.2384C152.246 49.0653 153.065 49.545 153.958 49.6775C154.846 49.81 155.749 49.6455 156.66 49.1932L157.447 50.7146C156.218 51.3085 154.984 51.5004 153.742 51.2902C152.499 51.0801 151.362 50.4085 150.335 49.2754V49.28Z" fill="white"/>
<path d="M156.301 56.1197L167.633 49.2896L170.354 53.7349C170.418 53.8445 170.496 53.977 170.579 54.1323C170.662 54.2877 170.736 54.443 170.796 54.6029C171.076 55.2699 171.178 55.905 171.104 56.5172C171.03 57.1248 170.814 57.6868 170.446 58.1939C170.077 58.701 169.59 59.135 168.987 59.5005C168.388 59.8614 167.776 60.0853 167.155 60.1721C166.529 60.2589 165.926 60.195 165.346 59.9802C164.766 59.7655 164.241 59.3817 163.776 58.8335C163.67 58.7056 163.564 58.5685 163.463 58.4223C163.362 58.2761 163.274 58.1528 163.21 58.0431L161.341 54.9912L157.157 57.5131L156.305 56.1243L156.301 56.1197ZM162.667 54.1826L164.508 57.1888C164.568 57.2893 164.641 57.3989 164.733 57.5177C164.821 57.6411 164.913 57.7507 165.01 57.8467C165.313 58.1573 165.645 58.3538 166.008 58.4497C166.372 58.5411 166.731 58.5502 167.099 58.4726C167.463 58.3949 167.804 58.2624 168.121 58.0705C168.434 57.8786 168.71 57.6411 168.95 57.3578C169.189 57.07 169.35 56.7456 169.438 56.3847C169.525 56.0238 169.497 55.6354 169.355 55.2288C169.318 55.0963 169.263 54.9638 169.194 54.8313C169.125 54.6988 169.06 54.5846 168.996 54.4841L167.155 51.4779L162.671 54.1826H162.667Z" fill="white"/>
<path d="M164.269 72.1055C163.809 70.8765 163.689 69.7343 163.91 68.679C164.131 67.6236 164.647 66.687 165.452 65.8784C166.253 65.0697 167.293 64.4301 168.573 63.955C169.848 63.4798 171.059 63.2879 172.2 63.3748C173.342 63.4616 174.345 63.8316 175.215 64.4849C176.085 65.1383 176.748 66.0794 177.208 67.3038C177.673 68.5373 177.793 69.6841 177.567 70.7394C177.342 71.7994 176.831 72.7314 176.025 73.5355C175.22 74.3396 174.179 74.9792 172.904 75.4543C171.629 75.9294 170.419 76.1213 169.282 76.0391C168.145 75.9523 167.137 75.5868 166.272 74.9335C165.402 74.2802 164.739 73.339 164.274 72.1055H164.269ZM165.738 71.5618C166.078 72.4847 166.575 73.17 167.229 73.6268C167.883 74.0837 168.642 74.3258 169.512 74.3487C170.382 74.3761 171.307 74.2025 172.297 73.837C173.291 73.4669 174.106 72.9918 174.736 72.4116C175.367 71.8314 175.781 71.1552 175.97 70.3831C176.159 69.6156 176.085 68.7703 175.744 67.8475C175.404 66.9246 174.911 66.2393 174.262 65.787C173.613 65.3347 172.854 65.0971 171.984 65.0652C171.114 65.0377 170.179 65.2022 169.185 65.5677C168.196 65.9286 167.381 66.4038 166.75 66.9886C166.12 67.5734 165.705 68.2495 165.517 69.0216C165.323 69.7937 165.402 70.6389 165.742 71.5572L165.738 71.5618Z" fill="white"/>
<path d="M167.341 80.795L180.408 78.5884L180.685 80.192L174.549 81.2291L181.656 85.8663L182.001 87.8856L174.645 83.0657L169.007 90.5537L168.652 88.4795L174.001 81.3204L167.612 82.3986L167.336 80.795H167.341Z" fill="white"/>
<path d="M167.854 108.581C168.066 107.288 168.531 106.238 169.258 105.429C169.981 104.62 170.892 104.063 171.992 103.752C173.092 103.446 174.317 103.4 175.661 103.615C177.005 103.835 178.151 104.259 179.099 104.894C180.048 105.529 180.733 106.347 181.161 107.343C181.59 108.339 181.7 109.481 181.488 110.774C181.244 112.277 180.655 113.452 179.725 114.301C178.796 115.147 177.654 115.649 176.292 115.809L176.121 114.105C177.138 113.995 177.985 113.648 178.662 113.059C179.334 112.469 179.762 111.624 179.942 110.523C180.098 109.554 180.011 108.714 179.675 108.001C179.339 107.288 178.8 106.704 178.064 106.251C177.327 105.799 176.434 105.484 175.385 105.31C174.344 105.137 173.401 105.15 172.558 105.347C171.716 105.543 171.017 105.932 170.464 106.512C169.912 107.087 169.557 107.864 169.401 108.828C169.221 109.929 169.359 110.866 169.815 111.633C170.271 112.401 170.961 112.999 171.886 113.42L171.182 114.982C169.944 114.406 169.019 113.57 168.407 112.474C167.794 111.377 167.61 110.08 167.854 108.577V108.581Z" fill="white"/>
<path d="M166.708 116.271L168.048 116.759C167.905 117.052 167.827 117.308 167.813 117.531C167.794 117.751 167.859 117.961 168.002 118.162C168.144 118.358 168.379 118.573 168.71 118.806C169.042 119.039 169.479 119.304 170.036 119.61C170.68 119.985 171.343 120.337 172.02 120.675C172.697 121.013 173.378 121.342 174.068 121.662C174.759 121.981 175.445 122.292 176.14 122.589C176.83 122.886 177.511 123.174 178.179 123.452L175.228 131.402L162.791 126.852L163.357 125.326L174.335 129.341L176.181 124.371C175.67 124.142 175.122 123.905 174.542 123.649C173.962 123.393 173.355 123.119 172.733 122.827C172.107 122.534 171.468 122.223 170.814 121.89C170.16 121.561 169.498 121.205 168.835 120.825C168.301 120.519 167.822 120.213 167.399 119.907C166.975 119.601 166.653 119.268 166.423 118.916C166.193 118.564 166.096 118.171 166.124 117.746C166.151 117.317 166.349 116.828 166.717 116.275L166.708 116.271Z" fill="white"/>
<path d="M159.99 132.028L161.992 135.057L172.942 136.19L171.999 137.748L163.05 136.683L168.151 144.098L167.248 145.588L159.078 133.545L159.994 132.032L159.99 132.028Z" fill="white"/>
<path d="M155.317 139.977L156.523 148.64L164.716 149.265L163.344 150.732L155.593 150.074L160.086 154.213L158.972 155.406L154.479 151.267L155.717 158.887L154.346 160.354L153.103 152.29L144.307 151.742L145.715 150.234L153.936 150.764L149.255 146.451L150.369 145.259L155.05 149.572L153.904 141.476L155.312 139.968L155.317 139.977Z" fill="white"/>
<path d="M142.019 153.227L149.659 163.977L142.783 168.792L141.885 167.531L147.422 163.652L145.388 160.792L142.447 162.853C142.341 162.926 142.212 163.013 142.065 163.104C141.913 163.2 141.765 163.282 141.613 163.36C140.992 163.689 140.375 163.844 139.758 163.817C139.142 163.789 138.562 163.616 138.023 163.291C137.485 162.967 137.015 162.528 136.619 161.971C136.228 161.418 135.966 160.838 135.841 160.226C135.712 159.614 135.74 159.015 135.924 158.43C136.108 157.845 136.458 157.311 136.983 156.836C137.107 156.726 137.241 156.617 137.379 156.502C137.517 156.393 137.641 156.297 137.742 156.224L142.023 153.227H142.019ZM141.577 155.424L138.681 157.453C138.585 157.521 138.479 157.599 138.364 157.695C138.249 157.791 138.143 157.887 138.046 157.983C137.6 158.453 137.397 158.965 137.448 159.518C137.494 160.07 137.678 160.568 137.991 161.012C138.313 161.464 138.727 161.802 139.229 162.026C139.735 162.25 140.283 162.231 140.882 161.971C141.01 161.916 141.139 161.852 141.264 161.775C141.392 161.697 141.503 161.624 141.6 161.555L144.495 159.527L141.577 155.42V155.424Z" fill="white"/>
<path d="M121.753 164.598L127.115 176.632L125.614 177.29L120.252 165.256L121.753 164.598ZM131.63 160.262L136.993 172.296L135.492 172.954L133.513 168.509L130.222 169.952C130.102 170.003 129.96 170.062 129.794 170.126C129.628 170.19 129.462 170.24 129.297 170.277C128.602 170.464 127.953 170.482 127.354 170.332C126.756 170.181 126.222 169.893 125.762 169.468C125.301 169.043 124.924 168.509 124.639 167.869C124.358 167.234 124.21 166.604 124.201 165.978C124.192 165.352 124.33 164.767 124.625 164.223C124.915 163.68 125.366 163.214 125.978 162.825C126.121 162.738 126.268 162.652 126.429 162.569C126.586 162.487 126.724 162.419 126.843 162.368L131.635 160.267L131.63 160.262ZM130.761 162.332L127.52 163.753C127.414 163.798 127.294 163.858 127.161 163.931C127.028 164.004 126.908 164.077 126.797 164.159C126.448 164.42 126.208 164.721 126.07 165.064C125.932 165.407 125.877 165.763 125.909 166.133C125.941 166.503 126.029 166.855 126.176 167.188C126.323 167.522 126.526 167.823 126.784 168.097C127.037 168.367 127.341 168.568 127.69 168.701C128.04 168.833 128.427 168.856 128.855 168.769C128.993 168.746 129.131 168.71 129.274 168.659C129.416 168.609 129.541 168.559 129.647 168.513L132.887 167.092L130.765 162.327L130.761 162.332Z" fill="white"/>
<path d="M106.19 168.399L107.111 181.525L101.886 181.886C101.757 181.895 101.605 181.899 101.426 181.904C101.246 181.904 101.076 181.899 100.906 181.881C100.183 181.822 99.5618 181.621 99.0508 181.278C98.5353 180.935 98.1395 180.483 97.8541 179.926C97.5687 179.368 97.403 178.738 97.3524 178.043C97.3017 177.349 97.3846 176.709 97.5917 176.115C97.7988 175.526 98.1349 175.024 98.5952 174.608C99.0555 174.192 99.6354 173.909 100.34 173.749C100.501 173.712 100.671 173.685 100.851 173.657C101.03 173.63 101.182 173.616 101.311 173.607L104.901 173.361L104.561 168.513L106.195 168.399H106.19ZM105.002 174.9L101.467 175.147C101.352 175.156 101.219 175.17 101.067 175.193C100.92 175.215 100.777 175.247 100.643 175.284C100.229 175.412 99.8978 175.613 99.6492 175.887C99.4007 176.166 99.2258 176.481 99.1291 176.837C99.0324 177.194 98.9956 177.555 99.0186 177.92C99.0462 178.286 99.1291 178.637 99.2764 178.98C99.4237 179.323 99.64 179.615 99.9254 179.857C100.211 180.099 100.565 180.255 100.993 180.314C101.131 180.341 101.274 180.355 101.426 180.351C101.578 180.351 101.711 180.346 101.826 180.337L105.362 180.095L104.998 174.9H105.002Z" fill="white"/>
<path d="M93.549 168.911L92.2188 182L83.8828 181.164L84.0393 179.629L90.7458 180.3L91.1647 176.202L85.5583 175.64L85.7148 174.105L91.3212 174.667L91.7677 170.286L85.0612 169.614L85.2177 168.079L93.5536 168.915L93.549 168.911Z" fill="white"/>
<path d="M81.7847 167.6L77.9182 180.186L76.4913 179.757L74.779 168.28L66.9356 176.865L65.4902 176.426L69.3521 163.849L70.8389 164.301L68.0265 173.461L75.1472 165.594L75.985 165.845L77.4763 176.317L80.2934 167.147L81.7801 167.6H81.7847Z" fill="white"/>
<path d="M61.3233 159.367C62.474 160.011 63.3025 160.811 63.8181 161.761C64.3336 162.716 64.5453 163.758 64.4533 164.886C64.3612 166.019 63.9838 167.17 63.3117 168.349C62.6397 169.528 61.8434 170.446 60.9136 171.109C59.9838 171.771 58.9757 172.127 57.8848 172.182C56.7985 172.237 55.68 171.945 54.5293 171.3C53.3739 170.652 52.5408 169.852 52.0253 168.902C51.5097 167.952 51.298 166.905 51.3901 165.777C51.4821 164.648 51.8642 163.493 52.5362 162.314C53.2082 161.135 54.0045 160.217 54.9297 159.554C55.8549 158.892 56.863 158.531 57.9539 158.476C59.0402 158.421 60.1633 158.718 61.3186 159.362L61.3233 159.367ZM60.5546 160.719C59.6984 160.231 58.8699 160.025 58.0736 160.089C57.2772 160.157 56.5408 160.459 55.8595 160.993C55.1783 161.528 54.5799 162.25 54.0598 163.164C53.5396 164.082 53.222 164.964 53.1162 165.813C53.0103 166.663 53.1346 167.444 53.489 168.153C53.8434 168.861 54.451 169.459 55.3072 169.948C56.1633 170.437 56.9873 170.642 57.779 170.574C58.5661 170.505 59.3072 170.204 59.9884 169.669C60.6742 169.135 61.2772 168.413 61.8066 167.499C62.3313 166.59 62.6443 165.708 62.7502 164.859C62.8514 164.009 62.7272 163.228 62.3773 162.515C62.0229 161.802 61.4199 161.204 60.5638 160.715L60.5546 160.719Z" fill="white"/>
<path d="M53.3284 154.729L44.6518 164.675L43.4136 163.611L47.2386 159.225L41.9636 154.693L38.1386 159.079L36.9004 158.014L45.577 148.068L46.8152 149.133L42.9809 153.528L48.2559 158.06L52.0902 153.665L53.3284 154.729Z" fill="white"/>
<path d="M40.8225 142.604L31.6902 149.864L34.5164 153.368L33.3012 154.332L26.627 146.058L27.8421 145.094L30.6684 148.598L39.8006 141.339L40.8225 142.609V142.604Z" fill="white"/>
<path d="M36.1096 136.583L22.3606 139.087L21.2559 137.104L30.7149 126.888L31.5389 128.368L22.7794 137.876L22.5309 137.428L35.2857 135.103L36.1096 136.583ZM32.3628 136.217L31.0187 136.953L27.6908 130.968L29.0349 130.232L32.3628 136.217Z" fill="white"/>
<path d="M88.8342 88.5253L106.475 88.635M106.475 88.635L106.585 106.308M106.475 88.635L86.6506 108.495" stroke="black"/>
</g>
<defs>
<clipPath id="clip0_56_669">
<rect width="171" height="170" fill="white" transform="translate(11 12)"/>
</clipPath>
</defs>
</svg>
