<svg width="142" height="142" viewBox="0 0 142 142" fill="none" xmlns="http://www.w3.org/2000/svg">
<circle cx="71" cy="71" r="70.5" stroke="#F1E18C"/>
<path d="M63.8906 75.8818L79.7906 99.6768L82.5506 92.9938H89.8106L78.7706 76.3613" stroke="#F1E18C" stroke-width="2" stroke-miterlimit="10"/>
<path d="M70.8195 86.7903L62.2095 99.6768L59.4495 92.9938H52.1895L63.2295 76.3613" stroke="#F1E18C" stroke-width="2" stroke-miterlimit="10"/>
<path d="M110 75.9718C113.314 75.9718 116 70.6049 116 63.9845C116 57.364 113.314 51.9971 110 51.9971C106.686 51.9971 104 57.364 104 63.9845C104 70.6049 106.686 75.9718 110 75.9718Z" stroke="#F1E18C" stroke-width="2" stroke-miterlimit="10"/>
<path d="M110 51.9971H32C28.7 51.9971 26 57.3614 26 63.9845C26 70.6075 28.7 75.9718 32 75.9718H110" stroke="#F1E18C" stroke-width="2" stroke-miterlimit="10"/>
<path d="M80 51.9971C76.7 51.9971 74 57.3614 74 63.9845C74 70.6075 76.7 75.9718 80 75.9718" stroke="#F1E18C" stroke-width="2" stroke-miterlimit="10"/>
<path d="M65 51.9971C61.7 51.9971 59 57.3614 59 63.9845C59 70.6075 61.7 75.9718 65 75.9718" stroke="#F1E18C" stroke-width="2" stroke-miterlimit="10"/>
</svg>
