<?xml version="1.0" standalone="no"?>
<!DOCTYPE svg PUBLIC "-//W3C//DTD SVG 20010904//EN"
 "http://www.w3.org/TR/2001/REC-SVG-20010904/DTD/svg10.dtd">
<svg version="1.0" xmlns="http://www.w3.org/2000/svg"
 width="700.000000pt" height="700.000000pt" viewBox="0 0 700.000000 700.000000"
 preserveAspectRatio="xMidYMid meet">
<metadata>
Created by potrace 1.14, written by Peter Selinger 2001-2017
</metadata>
<g transform="translate(0.000000,700.000000) scale(0.100000,-0.100000)"
fill="#000000" stroke="none">
<path d="M0 5144 l0 -1855 29 23 c15 13 310 297 655 633 l626 610 0 102 0 102
108 3 109 3 874 850 c481 468 897 872 925 898 l51 47 649 -631 c357 -347 680
-662 719 -700 l70 -69 -77 0 -76 0 -613 597 -614 597 -3 -602 -2 -602 -55 0
-55 0 -2 602 -3 601 -817 -794 c-744 -723 -815 -794 -789 -797 19 -2 32 -12
41 -30 7 -15 161 -355 342 -757 330 -729 422 -940 534 -1217 32 -81 63 -148
68 -148 5 0 6 24 3 53 -40 334 -57 788 -57 1490 l0 607 210 0 210 0 0 -1480 0
-1480 -211 2 -211 3 -333 732 c-283 622 -461 1039 -590 1385 -10 26 -20 46
-24 44 -4 -3 -1 -69 5 -148 27 -319 34 -606 34 -1295 l0 -722 -23 -3 c-20 -2
115 -137 792 -796 l816 -793 3 581 2 580 55 0 55 0 2 -580 3 -581 594 578 594
578 54 3 c29 2 60 -1 69 -6 12 -7 -109 -130 -578 -587 -326 -318 -638 -622
-693 -677 l-100 -98 1813 0 1812 0 -1 1238 c-1 1056 -3 1227 -14 1167 -60
-319 -278 -547 -601 -627 -72 -18 -119 -22 -244 -22 -163 -1 -223 8 -344 50
-114 40 -194 91 -287 183 -74 74 -93 101 -138 191 -54 110 -83 218 -96 358
l-6 72 220 0 221 0 0 -37 c0 -58 28 -161 57 -215 77 -142 250 -215 446 -189
154 21 269 103 318 229 19 46 23 78 23 162 1 100 -1 109 -32 173 -66 134 -165
218 -499 426 -252 156 -352 229 -448 325 -149 149 -222 294 -245 491 -46 384
169 702 546 807 68 19 104 22 259 22 167 0 186 -2 270 -28 137 -42 218 -89
311 -181 144 -142 213 -301 238 -542 l7 -63 -219 0 -219 0 -6 58 c-19 176
-107 294 -250 337 -71 21 -201 19 -276 -4 -92 -29 -154 -79 -193 -159 -30 -61
-33 -74 -33 -162 0 -87 3 -101 32 -160 67 -135 149 -203 488 -407 264 -159
361 -228 460 -327 135 -136 207 -267 240 -441 11 -59 13 270 14 2103 l1 2172
-3500 0 -3500 0 0 -1856z m5095 -589 l0 -200 -307 -3 -308 -2 -2 -1273 -3
-1272 -215 0 -215 0 -3 1273 -2 1272 -305 0 -305 0 0 205 0 205 833 -2 832 -3
0 -200z"/>
<path d="M735 3845 c-314 -305 -570 -558 -570 -564 0 -5 256 -259 570 -564
l570 -554 3 559 c1 307 1 810 0 1117 l-3 560 -570 -554z"/>
<path d="M0 1642 l0 -1642 1688 1 1687 0 -126 122 c-70 67 -485 471 -923 897
l-797 775 -107 5 -107 5 -3 102 -3 101 -492 478 c-271 263 -565 550 -654 638
l-163 160 0 -1642z"/>
</g>
</svg>
