<svg width="191" height="90" viewBox="0 0 191 90" fill="none" xmlns="http://www.w3.org/2000/svg">
<g clip-path="url(#clip0_56_565)">
<path fill-rule="evenodd" clip-rule="evenodd" d="M85.08 64.1869C92.0679 64.1869 95.964 59.4594 95.964 53.9309C95.964 42.399 80.2768 42.399 80.2768 35.1199C80.2768 32.4627 82.0379 30.7616 85.0767 30.7616C87.9566 30.7616 89.8268 32.4627 89.9328 36.0232H95.4277C95.2655 29.7001 91.4257 25.6089 85.0237 25.6089C78.6217 25.6089 74.7786 29.6473 74.7786 35.0144C74.7786 46.0682 90.4094 46.4935 90.4094 53.8781C90.4094 56.855 88.6484 58.9814 85.0734 58.9814C81.7664 58.9814 79.6843 57.1221 79.6313 53.2946H74.1364C74.1893 60.0957 78.4595 64.1869 85.0734 64.1869H85.08ZM71.902 26.3012H50.882V31.4012H58.618V63.4979H64.113V31.4012H71.902V26.3012ZM40.905 26.3012V40.8067C40.905 44.1001 41.2261 49.6814 41.6531 53.3474L41.4909 53.4528C40.5839 51.221 39.1969 47.766 38.0748 45.2704L29.4847 26.3012H24.0957V63.4979H29.4318V49.1506C29.4318 45.643 29.1637 40.0649 28.7929 36.3462L28.9518 36.2375C29.8588 38.6276 31.4047 42.5078 32.5268 45.2704L40.8521 63.4979H46.2411V26.3012H40.905Z" fill="#F1E18C"/>
<path fill-rule="evenodd" clip-rule="evenodd" d="M63.745 71.1495L45.0853 89.7956L0 44.8978L45.082 0L64.2912 19.1571L62.3448 19.256L45.8168 2.79231V19.3418H44.3504V2.79231L2.0722 44.8978L44.3504 87.0033V71.0538H45.8168V87.0033L61.8615 71.0209L63.745 71.1495Z" fill="#F1E18C"/>
<path d="M110.608 31.889H104.441V26.5483H122.674V31.889H116.507V63.933H110.608V31.889Z" fill="#F1E18C"/>
<path d="M125.518 26.5483H141.605V31.889H131.416V41.7692H139.513V47.1099H131.416V58.5923H141.605V63.933H125.518V26.5483Z" fill="#F1E18C"/>
<path d="M156.674 56.6176H149.865L148.845 63.933H143.377L149.491 26.5483H157.482L163.596 63.933H157.697L156.677 56.6176H156.674ZM155.923 51.5439L153.241 32.6901L150.613 51.5439H155.923Z" fill="#F1E18C"/>
<path d="M166.379 26.5483H174.691L178.607 53.6802L182.523 26.5483H190.835V63.933H185.257V35.6275L180.861 63.933H175.929L171.533 35.6275V63.933H166.386V26.5483H166.379Z" fill="#F1E18C"/>
</g>
<defs>
<clipPath id="clip0_56_565">
<rect width="191" height="90" fill="white"/>
</clipPath>
</defs>
</svg>
